<svg width="84" height="81" fill="none" xmlns="http://www.w3.org/2000/svg"><g filter="url(#a)" fill="#83B3D3"><path d="M34.15 65.5h16V41.7h-16v23.8Zm2.9-20.9h10.1v18h-10.1v-18Z"/><path d="m77.25 39.8 2.1-2.1-9.9-9.9V.5h-13.9v13.6L41.95.5 4.65 37.7l2.1 2.1 7.8-7.8v37.6h-4v2.9h63.9v-2.9h-5.1V32l7.9 7.8Zm-10.8 29.8h-49V29l24.5-24.4L66.45 29v40.6Zm0-44.7-7.9-7.9V3.4h7.9v21.5Z"/><path d="M34.35 27.6c0 4.3 3.5 7.7 7.7 7.7 4.3 0 7.8-3.5 7.8-7.7 0-4.3-3.5-7.7-7.8-7.7a7.7 7.7 0 0 0-7.7 7.7Zm7.8-5a5 5 0 0 1 5 4.9c0 2.7-2.2 4.9-5 4.9a5 5 0 0 1-5-4.9c0-2.7 2.2-4.9 5-4.9ZM24.55 41.7h-3v3.9h3v-3.9ZM30.45 41.7h-3v3.9h3v-3.9ZM24.55 47.7h-3v3.9h3v-3.9ZM30.45 47.7h-3v3.9h3v-3.9ZM56.45 41.7h-3v3.9h3v-3.9ZM62.35 41.7h-3v3.9h3v-3.9ZM56.45 47.7h-3v3.9h3v-3.9ZM62.35 47.7h-3v3.9h3v-3.9Z"/></g><defs><filter id="a" x=".65" y=".5" width="82.7" height="80" filterUnits="userSpaceOnUse" color-interpolation-filters="sRGB"><feFlood flood-opacity="0" result="BackgroundImageFix"/><feColorMatrix in="SourceAlpha" values="0 0 0 0 0 0 0 0 0 0 0 0 0 0 0 0 0 0 127 0" result="hardAlpha"/><feOffset dy="4"/><feGaussianBlur stdDeviation="2"/><feComposite in2="hardAlpha" operator="out"/><feColorMatrix values="0 0 0 0 0 0 0 0 0 0 0 0 0 0 0 0 0 0 0.25 0"/><feBlend in2="BackgroundImageFix" result="effect1_dropShadow_39666_64"/><feBlend in="SourceGraphic" in2="effect1_dropShadow_39666_64" result="shape"/></filter></defs></svg>